<svg xmlns="http://www.w3.org/2000/svg" viewBox="0 0 900 520" role="img" aria-labelledby="title desc">
  <title id="title">Data skill visual</title>
  <desc id="desc">Minimal data chart illustration with bars and trend line.</desc>
  <defs>
    <linearGradient id="bg" x1="0" y1="0" x2="1" y2="1">
      <stop offset="0%" stop-color="#0f172a"/>
      <stop offset="100%" stop-color="#1d4ed8"/>
    </linearGradient>
  </defs>

  <rect width="900" height="520" fill="#f8fafc"/>
  <rect x="56" y="52" width="788" height="416" rx="28" fill="url(#bg)"/>
  <rect x="100" y="98" width="700" height="328" rx="20" fill="#0b1324" opacity="0.55"/>

  <g fill="#34d399">
    <rect x="140" y="312" width="74" height="82" rx="10"/>
    <rect x="246" y="264" width="74" height="130" rx="10"/>
    <rect x="352" y="226" width="74" height="168" rx="10"/>
    <rect x="458" y="190" width="74" height="204" rx="10"/>
    <rect x="564" y="150" width="74" height="244" rx="10"/>
  </g>

  <g fill="none" stroke="#e2e8f0" stroke-width="8" stroke-linecap="round" stroke-linejoin="round">
    <path d="M154 292l94-60 102 36 106-86 118 44 94-66"/>
  </g>
  <g fill="#ffffff">
    <circle cx="154" cy="292" r="8"/>
    <circle cx="248" cy="232" r="8"/>
    <circle cx="350" cy="268" r="8"/>
    <circle cx="456" cy="182" r="8"/>
    <circle cx="574" cy="226" r="8"/>
    <circle cx="668" cy="160" r="8"/>
  </g>
</svg>
