<svg xmlns="http://www.w3.org/2000/svg" viewBox="0 0 900 520" role="img" aria-labelledby="title desc">
  <title id="title">Collaboration skill visual</title>
  <desc id="desc">Clean collaboration board with task columns and status dots.</desc>
  <defs>
    <linearGradient id="bg" x1="0" y1="0" x2="1" y2="1">
      <stop offset="0%" stop-color="#f8fafc"/>
      <stop offset="100%" stop-color="#ecfeff"/>
    </linearGradient>
  </defs>

  <rect width="900" height="520" fill="url(#bg)"/>
  <rect x="68" y="54" width="764" height="412" rx="28" fill="#ffffff" stroke="#cbd5e1" stroke-width="4"/>

  <rect x="114" y="106" width="220" height="304" rx="18" fill="#0f172a"/>
  <rect x="352" y="106" width="220" height="304" rx="18" fill="#eff6ff"/>
  <rect x="590" y="106" width="196" height="304" rx="18" fill="#f0fdf4"/>

  <g fill="#d1fae5">
    <circle cx="154" cy="148" r="9"/>
    <circle cx="184" cy="148" r="9"/>
    <circle cx="214" cy="148" r="9"/>
  </g>
  <g fill="#ffffff">
    <rect x="140" y="188" width="168" height="16" rx="8"/>
    <rect x="140" y="220" width="132" height="16" rx="8"/>
    <rect x="140" y="252" width="156" height="16" rx="8"/>
    <rect x="140" y="284" width="118" height="16" rx="8"/>
  </g>

  <g fill="#bfdbfe">
    <rect x="376" y="154" width="170" height="14" rx="7"/>
    <rect x="376" y="186" width="150" height="14" rx="7"/>
    <rect x="376" y="218" width="174" height="14" rx="7"/>
    <rect x="376" y="250" width="122" height="14" rx="7"/>
    <rect x="376" y="282" width="162" height="14" rx="7"/>
  </g>

  <g fill="#86efac">
    <rect x="612" y="154" width="150" height="14" rx="7"/>
    <rect x="612" y="186" width="122" height="14" rx="7"/>
    <rect x="612" y="218" width="160" height="14" rx="7"/>
    <rect x="612" y="250" width="140" height="14" rx="7"/>
  </g>
</svg>
