<svg xmlns="http://www.w3.org/2000/svg" viewBox="0 0 900 520" role="img" aria-labelledby="title desc">
  <title id="title">Cloud skill visual</title>
  <desc id="desc">Clean cloud architecture style with connected services.</desc>
  <defs>
    <linearGradient id="bg" x1="0" y1="0" x2="1" y2="1">
      <stop offset="0%" stop-color="#ecfeff"/>
      <stop offset="100%" stop-color="#dbeafe"/>
    </linearGradient>
  </defs>

  <rect width="900" height="520" fill="url(#bg)"/>
  <rect x="76" y="58" width="748" height="404" rx="28" fill="#ffffff" stroke="#bfdbfe" stroke-width="4"/>

  <g fill="#3b82f6">
    <circle cx="316" cy="220" r="70"/>
    <circle cx="398" cy="182" r="86"/>
    <circle cx="492" cy="220" r="72"/>
    <rect x="260" y="220" width="298" height="110" rx="55"/>
  </g>

  <g fill="#0f172a">
    <rect x="148" y="358" width="164" height="52" rx="14"/>
    <rect x="368" y="358" width="164" height="52" rx="14"/>
    <rect x="588" y="358" width="164" height="52" rx="14"/>
  </g>

  <g stroke="#1e293b" stroke-width="6" stroke-linecap="round">
    <line x1="230" y1="358" x2="230" y2="318"/>
    <line x1="450" y1="358" x2="450" y2="318"/>
    <line x1="670" y1="358" x2="670" y2="318"/>
  </g>

  <g fill="#bfdbfe">
    <circle cx="230" cy="332" r="6"/>
    <circle cx="450" cy="332" r="6"/>
    <circle cx="670" cy="332" r="6"/>
  </g>
</svg>
